# xmcd
#
# Track frame offsets: 
#        150
#        15962
#        32747
#        44977
#        64449
#        85435
#        103355
#        121673
#        138021
#
# Disc length: 2159 seconds
#
# Revision: 0
# Processed by: cddbd v1.5.2PL0 Copyright (c) Steve Scherf et al.
# Submitted via: ExactAudioCopy v1.1
#
DISCID=7a086d09
DTITLE=Terence Boylan - Terence Boylan
DYEAR=1977
DGENRE=Rock
TTITLE0=Don't Hang Up Those Dancing Shoes
TTITLE1=Shake It
TTITLE2=Sundown Of Fools
TTITLE3=The War Was Over
TTITLE4=Shame
TTITLE5=Hey Papa
TTITLE6=Where Are You Hiding
TTITLE7=Rain King
TTITLE8=Trains
EXTD=
EXTT0=
EXTT1=
EXTT2=
EXTT3=
EXTT4=
EXTT5=
EXTT6=
EXTT7=
EXTT8=
PLAYORDER=
